<svg xmlns="http://www.w3.org/2000/svg" width="15.001" height="15.024" viewBox="0 0 15.001 15.024">
  <path id="icon_copy" data-name="icon copy" d="M1160.049,740.012a3.712,3.712,0,0,1-4.049-4.055V730.4a4.134,4.134,0,0,1,1.068-2.992,4.087,4.087,0,0,1,2.98-1.078h6.036a3.672,3.672,0,0,0-.044.563,3.053,3.053,0,0,0,3.043,3.056,3.493,3.493,0,0,0,.555-.051v6.059a3.712,3.712,0,0,1-4.049,4.055Zm1.342-8.29a.585.585,0,0,0-.375.225l-2.219,2.891-.046.067a.562.562,0,0,0,.157.714.624.624,0,0,0,.345.113h.02a.536.536,0,0,0,.423-.225l1.882-2.426,2.136,1.608.068.044a.561.561,0,0,0,.712-.158l2.167-2.8-.03.015a.564.564,0,0,0,.061-.562.552.552,0,0,0-.456-.33h-.063a.576.576,0,0,0-.463.236l-1.814,2.347-2.078-1.636a.587.587,0,0,0-.361-.124Zm5.991-4.919a1.807,1.807,0,1,1,1.807,1.81h0A1.809,1.809,0,0,1,1167.382,726.8Z" transform="translate(-1155.995 -724.993)" fill="#00ac21"/>
</svg>
