<svg width="14" height="14" viewBox="0 0 14 14" fill="none" xmlns="http://www.w3.org/2000/svg">
<g id="iconoir:report-columns">
<path id="Vector" d="M1.75 4.31667V2.1C1.75 2.00717 1.78687 1.91815 1.85251 1.85251C1.91815 1.78687 2.00717 1.75 2.1 1.75H5.48333C5.57616 1.75 5.66518 1.78687 5.73082 1.85251C5.79646 1.91815 5.83333 2.00717 5.83333 2.1V4.31667C5.83333 4.40949 5.79646 4.49852 5.73082 4.56415C5.66518 4.62979 5.57616 4.66667 5.48333 4.66667H2.1C2.00717 4.66667 1.91815 4.62979 1.85251 4.56415C1.78687 4.49852 1.75 4.40949 1.75 4.31667ZM8.16667 11.9V9.68333C8.16667 9.59051 8.20354 9.50148 8.26918 9.43585C8.33482 9.37021 8.42384 9.33333 8.51667 9.33333H11.9C11.9928 9.33333 12.0818 9.37021 12.1475 9.43585C12.2131 9.50148 12.25 9.59051 12.25 9.68333V11.9C12.25 11.9928 12.2131 12.0818 12.1475 12.1475C12.0818 12.2131 11.9928 12.25 11.9 12.25H8.51667C8.42384 12.25 8.33482 12.2131 8.26918 12.1475C8.20354 12.0818 8.16667 11.9928 8.16667 11.9ZM8.16667 7.23333V2.1C8.16667 2.00717 8.20354 1.91815 8.26918 1.85251C8.33482 1.78687 8.42384 1.75 8.51667 1.75H11.9C11.9928 1.75 12.0818 1.78687 12.1475 1.85251C12.2131 1.91815 12.25 2.00717 12.25 2.1V7.23333C12.25 7.32616 12.2131 7.41518 12.1475 7.48082C12.0818 7.54646 11.9928 7.58333 11.9 7.58333H8.51667C8.42384 7.58333 8.33482 7.54646 8.26918 7.48082C8.20354 7.41518 8.16667 7.32616 8.16667 7.23333ZM1.75 11.9V6.76667C1.75 6.67384 1.78687 6.58482 1.85251 6.51918C1.91815 6.45354 2.00717 6.41667 2.1 6.41667H5.48333C5.57616 6.41667 5.66518 6.45354 5.73082 6.51918C5.79646 6.58482 5.83333 6.67384 5.83333 6.76667V11.9C5.83333 11.9928 5.79646 12.0818 5.73082 12.1475C5.66518 12.2131 5.57616 12.25 5.48333 12.25H2.1C2.00717 12.25 1.91815 12.2131 1.85251 12.1475C1.78687 12.0818 1.75 11.9928 1.75 11.9Z" stroke="white"/>
</g>
</svg>
